<svg xmlns="http://www.w3.org/2000/svg" viewBox="0 0 240 240" role="img" aria-labelledby="title desc">
  <title id="title">滴定管</title><desc id="desc">帶刻度與旋塞的透明玻璃滴定管母版</desc>
  <defs>
    <linearGradient id="glass" x1="0" x2="1"><stop stop-color="#fff" stop-opacity=".75"/><stop offset=".48" stop-color="#6bcce0" stop-opacity=".16"/><stop offset="1" stop-color="#efffff" stop-opacity=".66"/></linearGradient>
    <filter id="shadow"><feDropShadow dx="0" dy="5" stdDeviation="4" flood-color="#061d19" flood-opacity=".34"/></filter>
    <clipPath id="burette-liquid-clip"><path d="M111 4h18v181h-18z"/></clipPath>
  </defs>
  <g filter="url(#shadow)">
    <path d="M111 3h18v182h-18z" fill="url(#glass)" stroke="#dffcff" stroke-width="2.7"/>
    <path d="M115 9v169" stroke="#fff" stroke-opacity=".72" stroke-width="2.2" stroke-linecap="round"/>
    <g stroke="#c7f3fb" stroke-width="2">
      <path d="M112 19h7m-7 12h12m-12 12h7m-7 12h12m-12 12h7m-7 12h12m-12 12h7m-7 12h12m-12 12h7m-7 12h12m-12 12h7m-7 12h12m-12 12h7m-7 12h12"/>
    </g>
    <path d="M103 184h34v14H103z" fill="#82949a" stroke="#e7f7fa" stroke-width="2.2" rx="2"/>
    <path d="M83 191h74" stroke="#aebfc4" stroke-width="5" stroke-linecap="round"/>
    <circle cx="120" cy="191" r="4.5" fill="#26363c" stroke="#efffff" stroke-width="1.8"/>
    <path d="M116 198h8v21l-4 17-4-17z" fill="url(#glass)" stroke="#dffcff" stroke-width="2.2"/>
  </g>
</svg>
