<svg xmlns="http://www.w3.org/2000/svg" xmlns:dc="http://purl.org/dc/elements/1.1/" xmlns:ns1="http://sodipodi.sourceforge.net/DTD/sodipodi-0.dtd" xmlns:ns2="http://www.inkscape.org/namespaces/inkscape" xmlns:ns5="http://creativecommons.org/ns#" xmlns:rdf="http://www.w3.org/1999/02/22-rdf-syntax-ns#" xmlns:xlink="http://www.w3.org/1999/xlink" ns1:docname="Digestive_system_diagram_without labels.svg" ns2:version="1.0rc1 (09960d6f05, 2020-04-09)" version="1.1" id="svg29157" viewBox="0 0 350.99999 820.99997" height="1642" width="702">
  <defs id="defs29159">
    <linearGradient id="XMLID_8_" gradientUnits="userSpaceOnUse" x1="452.14749" y1="557.91602" x2="353.1377" y2="864.57129">
      <stop offset="0" style="stop-color:#6C9D31" id="stop23" />
      <stop offset="0.2906" style="stop-color:#6C9C32" id="stop25" />
      <stop offset="0.4226" style="stop-color:#6B9A36" id="stop27" />
      <stop offset="0.5227" style="stop-color:#67963E" id="stop29" />
      <stop offset="0.6066" style="stop-color:#62914A" id="stop31" />
      <stop offset="0.6803" style="stop-color:#5C8B59" id="stop33" />
      <stop offset="0.747" style="stop-color:#528368" id="stop35" />
      <stop offset="0.8084" style="stop-color:#467977" id="stop37" />
      <stop offset="0.8656" style="stop-color:#356D87" id="stop39" />
      <stop offset="0.9173" style="stop-color:#1C6095" id="stop41" />
      <stop offset="0.9607" style="stop-color:#0054A6" id="stop43" />
      <stop offset="0.9696" style="stop-color:#2E4BA0" id="stop45" />
      <stop offset="0.9893" style="stop-color:#5A3795" id="stop47" />
      <stop offset="1" style="stop-color:#662D91" id="stop49" />
    </linearGradient>
    <linearGradient gradientTransform="matrix(0.94760496,-0.01496359,0.01412178,0.97366428,317.23734,-10.872048)" y2="864.57129" x2="353.1377" y1="557.77557" x1="452.44589" gradientUnits="userSpaceOnUse" id="linearGradient10163" xlink:href="#XMLID_8_" ns2:collect="always" />
    <linearGradient gradientTransform="matrix(0.67207627,0,0,0.67207627,381.67751,37.544503)" gradientUnits="userSpaceOnUse" y2="161.78656" x2="131.33696" y1="155.8502" x1="123.69081" id="linearGradient5134" xlink:href="#linearGradient5128" ns2:collect="always" />
    <linearGradient id="linearGradient5128" ns2:collect="always">
      <stop id="stop5130" offset="0" style="stop-color:#95bff2;stop-opacity:1;" />
      <stop id="stop5132" offset="1" style="stop-color:#86b6f0;stop-opacity:0" />
    </linearGradient>
    <linearGradient gradientUnits="userSpaceOnUse" y2="160.95337" x2="129.2478" y1="154.08974" x1="122.03947" id="linearGradient5134-9" xlink:href="#linearGradient5128" ns2:collect="always" gradientTransform="matrix(0.3829586,0.5522945,-0.5522945,0.3829586,546.08161,-3.2713455)" />
    <linearGradient gradientTransform="matrix(0.67207627,0,0,0.67207627,403.8917,4.1963433)" y2="162.29231" x2="129.73541" y1="155.34445" x1="123.26936" gradientUnits="userSpaceOnUse" id="linearGradient5164" xlink:href="#linearGradient5128" ns2:collect="always" />
    <linearGradient y2="163.64098" x2="128.38675" y1="153.32146" x1="120.57202" gradientTransform="matrix(0.67207627,0,0,0.67207627,461.9017,24.36388)" gradientUnits="userSpaceOnUse" id="linearGradient5168" xlink:href="#linearGradient5128" ns2:collect="always" />
    <ns2:path-effect fuse_tolerance="0" vertical_pattern="true" prop_units="false" tang_offset="0" normal_offset="0" spacing="0" scale_y_rel="false" prop_scale="1" copytype="single_stretched" pattern="m 867.55667,515.13262 1.38896,40.4061 -2.77792,0 z" is_visible="true" id="path-effect3956-8-4" effect="skeletal" />
    <ns2:path-effect fuse_tolerance="0" vertical_pattern="true" prop_units="false" tang_offset="0" normal_offset="0" spacing="0" scale_y_rel="false" prop_scale="1" copytype="single_stretched" pattern="m 892.49044,501.34066 1.38896,40.4061 -2.77792,0 z" is_visible="true" id="path-effect3956-0-7-8" effect="skeletal" />
    <ns2:path-effect fuse_tolerance="0" vertical_pattern="true" prop_units="false" tang_offset="0" normal_offset="0" spacing="0" scale_y_rel="false" prop_scale="1" copytype="single_stretched" pattern="m 918.20473,489.55495 1.38896,40.4061 -2.77792,0 z" is_visible="true" id="path-effect3956-9-5-3" effect="skeletal" />
    <ns2:path-effect fuse_tolerance="0" vertical_pattern="true" prop_units="false" tang_offset="0" normal_offset="0" spacing="0" scale_y_rel="false" prop_scale="1" copytype="single_stretched" pattern="m 946.06187,484.1978 1.38896,40.4061 -2.77792,0 z" is_visible="true" id="path-effect3956-6-5-2" effect="skeletal" />
    <ns2:path-effect fuse_tolerance="0" vertical_pattern="true" prop_units="false" tang_offset="0" normal_offset="0" spacing="0" scale_y_rel="false" prop_scale="1" copytype="single_stretched" pattern="m 971.41901,476.69781 1.38896,40.4061 -2.77792,0 z" is_visible="true" id="path-effect3956-99-4-3" effect="skeletal" />
    <ns2:path-effect fuse_tolerance="0" vertical_pattern="true" prop_units="false" tang_offset="0" normal_offset="0" spacing="0" scale_y_rel="false" prop_scale="1" copytype="single_stretched" pattern="m 996.77616,468.48352 1.38896,40.4061 -2.77792,0 z" is_visible="true" id="path-effect3956-5-6-6" effect="skeletal" />
    <ns2:path-effect fuse_tolerance="0" vertical_pattern="true" prop_units="false" tang_offset="0" normal_offset="0" spacing="0" scale_y_rel="false" prop_scale="1" copytype="single_stretched" pattern="m 1020.9946,461.1538 1.389,40.4061 -2.7779,0 z" is_visible="true" id="path-effect3956-5-1-1-8" effect="skeletal" />
    <ns2:path-effect fuse_tolerance="0" vertical_pattern="true" prop_units="false" tang_offset="0" normal_offset="0" spacing="0" scale_y_rel="false" prop_scale="1" copytype="single_stretched" pattern="m 1011.9512,455.71387 1.3889,40.4061 -2.7779,0 z" is_visible="true" id="path-effect3956-5-1-8-8-6" effect="skeletal" />
    <ns2:path-effect fuse_tolerance="0" vertical_pattern="true" prop_units="false" tang_offset="0" normal_offset="0" spacing="0" scale_y_rel="false" prop_scale="1" copytype="single_stretched" pattern="m 982.75323,451.88036 1.38896,40.4061 -2.77792,0 z" is_visible="true" id="path-effect3956-99-0-6-9" effect="skeletal" />
    <ns2:path-effect fuse_tolerance="0" vertical_pattern="true" prop_units="false" tang_offset="0" normal_offset="0" spacing="0" scale_y_rel="false" prop_scale="1" copytype="single_stretched" pattern="m 877.4889,482.80023 1.38896,40.4061 -2.77792,0 z" is_visible="true" id="path-effect3956-99-0-8-9-5-5" effect="skeletal" />
    <ns2:path-effect fuse_tolerance="0" vertical_pattern="true" prop_units="false" tang_offset="0" normal_offset="0" spacing="0" scale_y_rel="false" prop_scale="1" copytype="single_stretched" pattern="m 902.4889,475.65737 1.38896,40.4061 -2.77792,0 z" is_visible="true" id="path-effect3956-99-0-8-2-6-1" effect="skeletal" />
    <ns2:path-effect fuse_tolerance="0" vertical_pattern="true" prop_units="false" tang_offset="0" normal_offset="0" spacing="0" scale_y_rel="false" prop_scale="1" copytype="single_stretched" pattern="m 930.34605,464.58594 1.38896,40.4061 -2.77792,0 z" is_visible="true" id="path-effect3956-99-0-8-8-8-4" effect="skeletal" />
    <ns2:path-effect fuse_tolerance="0" vertical_pattern="true" prop_units="false" tang_offset="0" normal_offset="0" spacing="0" scale_y_rel="false" prop_scale="1" copytype="single_stretched" pattern="m 956.41747,458.51451 1.38896,40.4061 -2.77792,0 z" is_visible="true" id="path-effect3956-99-0-8-4-8-3" effect="skeletal" />
    <ns2:path-effect fuse_tolerance="0" vertical_pattern="true" prop_units="false" tang_offset="0" normal_offset="0" spacing="0" scale_y_rel="false" prop_scale="1" copytype="single_stretched" pattern="m 840.72815,544.58595 1.38896,40.4061 -2.77792,0 z" is_visible="true" id="path-effect3956-99-0-8-7-54-5" effect="skeletal" />
    <ns2:path-effect fuse_tolerance="0" vertical_pattern="true" prop_units="false" tang_offset="0" normal_offset="0" spacing="0" scale_y_rel="false" prop_scale="1" copytype="single_stretched" pattern="m 810.88054,563.63437 1.38896,40.4061 -2.77792,0 z" is_visible="true" id="path-effect3956-99-0-8-7-5-6-6" effect="skeletal" />
    <ns2:path-effect fuse_tolerance="0" vertical_pattern="true" prop_units="false" tang_offset="0" normal_offset="0" spacing="0" scale_y_rel="false" prop_scale="1" copytype="single_stretched" pattern="m 855.3741,464.33771 1.38896,40.4061 -2.77792,0 z" is_visible="true" id="path-effect3956-99-0-8-7-1-85-6" effect="skeletal" />
    <ns2:path-effect fuse_tolerance="0" vertical_pattern="true" prop_units="false" tang_offset="0" normal_offset="0" spacing="0" scale_y_rel="false" prop_scale="1" copytype="single_stretched" pattern="m 791.45401,504.67833 1.38896,40.4061 -2.77792,0 z" is_visible="true" id="path-effect3956-99-0-8-7-1-8-0-7" effect="skeletal" />
    <ns2:path-effect fuse_tolerance="0" vertical_pattern="true" prop_units="false" tang_offset="0" normal_offset="0" spacing="0" scale_y_rel="false" prop_scale="1" copytype="single_stretched" pattern="m 839.28056,530.78447 1.38896,40.4061 -2.77792,0 z" is_visible="true" id="path-effect3956-99-0-8-7-1-8-4-8-2" effect="skeletal" />
    <radialGradient ns2:collect="always" xlink:href="#linearGradient4072-7" id="radialGradient29329" gradientUnits="userSpaceOnUse" gradientTransform="matrix(0.40556169,-0.33554526,0.13154845,0.15899795,551.5587,451.48843)" cx="124.12415" cy="103.94829" fx="124.12415" fy="103.94829" r="45.931713" />
    <linearGradient id="linearGradient4072-7" ns2:collect="always">
      <stop id="stop4074-6" offset="0" style="stop-color:#d6a186;stop-opacity:1;" />
      <stop id="stop4076-5" offset="1" style="stop-color:#d6a186;stop-opacity:0;" />
    </linearGradient>
    <ns2:path-effect fuse_tolerance="0" vertical_pattern="false" prop_units="false" tang_offset="0" normal_offset="0" spacing="2" scale_y_rel="false" prop_scale="1" copytype="repeated_stretched" pattern="#rect4451" is_visible="true" id="path-effect3182-0-0" effect="skeletal" />
  </defs>
  <metadata id="metadata29162">
    <rdf:RDF>
      <ns5:Work rdf:about="">
        <dc:format>image/svg+xml</dc:format>
        <dc:type rdf:resource="http://purl.org/dc/dcmitype/StillImage" />
        <dc:title />
      </ns5:Work>
    </rdf:RDF>
  </metadata>
  <g style="display:inline" transform="translate(-129.5,-11.862187)" id="layer1" ns2:groupmode="layer" ns2:label="Draw">
    <g transform="translate(-391.9025,23.798341)" id="g9404" style="display:inline">
      </g>
    <g transform="translate(-249.15432,-48.972269)" id="g10309" style="display:inline;overflow:visible">
      </g>
    <path style="color:#000000;clip-rule:nonzero;display:inline;overflow:visible;visibility:visible;opacity:1;isolation:auto;mix-blend-mode:normal;color-interpolation:sRGB;color-interpolation-filters:linearRGB;solid-color:#000000;solid-opacity:1;fill:#f2cccc;fill-opacity:1;fill-rule:nonzero;stroke:none;stroke-width:1;stroke-linecap:butt;stroke-linejoin:miter;stroke-miterlimit:4;stroke-dasharray:none;stroke-dashoffset:0;stroke-opacity:1;color-rendering:auto;image-rendering:auto;shape-rendering:auto;text-rendering:auto;enable-background:accumulate" d="m 303.53762,813.8118 c 0.81061,-0.6017 1.28404,-1.3132 1.50129,-2.0909 -0.79421,-0.7035 -1.12018,-1.8261 0.0207,-2.2406 -0.0208,-2.9064 -3.18173,-5.9819 -4.84802,-7.8431 -3.94502,-5.8577 -5.30476,-10.3692 -6.13022,-17.7816 -0.21355,-5.0688 -0.40081,-0.4281 -0.38858,-0.1791 0.4242,8.6394 3.59564,15.9618 5.94531,19.5768 0.82681,5.3558 -7.80527,-4.3838 -9.40943,-5.7582 -0.80783,-0.6921 -1.1535,-0.6131 0.20932,1.5595 0.44822,0.7146 6.53535,6.0021 8.23677,7.822 1.70058,1.819 2.76943,6.7407 4.8629,6.9352 z" id="path5249-7" ns2:connector-curvature="0" ns1:nodetypes="cccccscssscc" />
    <path ns1:nodetypes="cccccscssscc" ns2:connector-curvature="0" id="path22855" d="m 309.47638,813.9593 c -0.81061,-0.6018 -1.28404,-1.3132 -1.50129,-2.0909 0.79421,-0.7035 1.12018,-1.8261 -0.0207,-2.2406 0.0208,-2.9064 3.18173,-5.9819 4.84802,-7.8431 3.94502,-5.8577 5.30476,-10.3692 6.13022,-17.7816 0.21355,-5.0688 0.40081,-0.4281 0.38858,-0.1791 -0.4242,8.6393 -3.59564,15.9618 -5.94531,19.5768 -0.82681,5.3558 7.80527,-4.3838 9.40943,-5.7582 0.80783,-0.6921 1.1535,-0.6131 -0.20932,1.5595 -0.44822,0.7146 -6.53535,6.0021 -8.23677,7.822 -1.70058,1.819 -2.76943,6.7407 -4.8629,6.9352 z" style="color:#000000;clip-rule:nonzero;display:inline;overflow:visible;visibility:visible;opacity:1;isolation:auto;mix-blend-mode:normal;color-interpolation:sRGB;color-interpolation-filters:linearRGB;solid-color:#000000;solid-opacity:1;fill:#f2cccc;fill-opacity:1;fill-rule:nonzero;stroke:none;stroke-width:1;stroke-linecap:butt;stroke-linejoin:miter;stroke-miterlimit:4;stroke-dasharray:none;stroke-dashoffset:0;stroke-opacity:1;color-rendering:auto;image-rendering:auto;shape-rendering:auto;text-rendering:auto;enable-background:accumulate" />
    <g transform="matrix(0.99999988,-5.1317708e-4,5.1317708e-4,0.99999988,-340.42751,4.1786011)" id="g10089" style="display:inline">
      <path d="m 647.57998,808.62346 c -0.28844,-2.78614 -0.26015,-6.43303 0.90276,-9.16834 3.83267,-3.6345 7.91881,-9.27636 8.9386,-15.60795 0.31631,-1.97906 0.86867,-17.18922 -4.95263,-21.84143 6.72011,-8.01577 1.87114,-16.83369 0.62252,-20.46737 11.64233,7.72705 19.31127,16.11736 34.58417,13.9401 25.55539,-3.64464 43.60881,-6.30698 54.90491,-31.92719 1.45541,-3.29816 2.52691,-6.86003 4.56874,-9.85094 2.38891,-3.50185 6.06844,-5.78333 7.35693,-10.06833 0.7839,-2.61071 0.4818,-4.74947 1.87031,-6.9753 0.75123,-1.20293 2.29761,-1.75811 3.17909,-3.12963 3.42115,-5.32763 -0.70804,-8.88918 0.26802,-14.06522 0.84948,-4.49329 5.7726,-6.51005 5.80714,-12.55843 0.0173,-3.11769 -2.31564,-6.47777 -1.5,-9.57884 0.68357,-2.60134 3.46034,-4.91239 4.51636,-7.64719 1.48992,-3.85967 1.70038,-7.45079 0.0696,-11.21054 -0.61388,-1.41608 -2.0282,-3.25777 -2.34761,-4.69505 -0.30723,-1.38196 0.39,-2.51781 0.89399,-4.03822 1.43931,-4.34289 1.65323,-9.46015 0.23225,-13.78709 -0.89443,-2.7225 -1.97345,-4.18772 -1.24612,-7.10431 0.7049,-2.82956 4.48939,-2.62185 4.26905,-8.08389 -0.19526,-6.2849 -3.51904,-8.67905 -4.06447,-11.06133 -0.63853,-2.78887 3.06939,-2.78167 4.29983,-11.66233 1.15836,-8.36039 -0.86734,-12.68813 -3.32295,-16.0512 3.20655,-10.93786 2.91686,-16.31937 -4.35971,-25.13287 -2.62554,-10.61309 -10.85201,-14.16252 -20.97538,-6.75596 -10.0146,7.32497 -14.42717,16.85422 -11.79546,27.5449 1.35959,5.518 1.88335,7.45167 1.29415,13.16113 -0.0832,0.7999 -0.23855,15.66627 4.44907,12.37745 -3.70148,2.59737 -4.26819,6.72099 -4.87193,11.03511 -0.92551,6.63607 1.90121,7.11539 3.14887,12.36539 0.76122,3.21057 -0.19373,4.02619 -0.89378,7.90844 -0.97048,5.36489 1.6445,9.4782 1.80073,13.51834 0.11018,2.89168 -2.00601,5.06862 -2.60619,8.38737 -0.83174,4.60501 2.07698,6.3598 2.43608,10.20683 0.19621,2.09173 -2.64904,18.24086 -3.27762,19.27434 -2.15324,3.54389 -7.71809,4.11871 -9.8054,7.50282 -2.8439,4.61049 0.8456,10.33517 -1.09292,15.02486 -1.5283,3.69666 -7.20404,3.55353 -8.77354,8.52663 -1.34742,4.27424 0.9072,10.13845 0.92175,14.73594 -9.45861,-0.15059 -17.47566,7.14284 -19.11815,16.62425 -0.39353,2.27439 -31.29054,-11.86576 -34.36149,-11.99744 -10.8849,-0.46504 -19.3078,6.31192 -24.46225,15.5128 -5.54343,9.89361 -4.83193,16.40218 -2.26105,25.37127 0.89645,3.12744 1.10372,2.49032 3.40155,5.661 -2.20894,7.6719 -2.05064,9.45443 -1.1944,18.43716 1.69043,6.74061 4.12496,13.05376 9.56443,18.21762 1.57852,3.46093 1.64072,7.13804 -0.0119,9.22214" id="path10143" style="fill:url(#linearGradient10163);stroke:#6c5635;stroke-width:0.57639378" ns2:connector-curvature="0" ns1:nodetypes="cccccccccccccccccccccssccccccccccccccccccccscccc" />
      </g>
    </g>
  <g transform="translate(-129.5,-11.862187)" style="display:inline" ns2:label="Salivary glands" id="layer4" ns2:groupmode="layer">
    <g transform="translate(-115.66453,-65.867069)" id="g11213" style="display:inline;overflow:visible">
      </g>
    <g transform="matrix(0.99970303,0,0,1.1233936,-97.61397,-124.88704)" id="g11205" style="display:inline;overflow:visible">
      </g>
    <g transform="translate(-126.51058,-85.056219)" id="g11226" style="display:inline;overflow:visible">
      </g>
  </g>
  <g transform="translate(-129.5,-11.862187)" style="display:none" ns2:label="Patterns" id="layer5" ns2:groupmode="layer">
    </g>
</svg>