<svg xmlns="http://www.w3.org/2000/svg" xmlns:dc="http://purl.org/dc/elements/1.1/" xmlns:ns1="http://sodipodi.sourceforge.net/DTD/sodipodi-0.dtd" xmlns:ns2="http://www.inkscape.org/namespaces/inkscape" xmlns:ns5="http://creativecommons.org/ns#" xmlns:rdf="http://www.w3.org/1999/02/22-rdf-syntax-ns#" xmlns:xlink="http://www.w3.org/1999/xlink" ns1:docname="Digestive_system_diagram_without labels.svg" ns2:version="1.0rc1 (09960d6f05, 2020-04-09)" version="1.1" id="svg29157" viewBox="0 0 350.99999 820.99997" height="1642" width="702">
  <defs id="defs29159">
    <linearGradient id="XMLID_8_" gradientUnits="userSpaceOnUse" x1="452.14749" y1="557.91602" x2="353.1377" y2="864.57129">
      <stop offset="0" style="stop-color:#6C9D31" id="stop23" />
      <stop offset="0.2906" style="stop-color:#6C9C32" id="stop25" />
      <stop offset="0.4226" style="stop-color:#6B9A36" id="stop27" />
      <stop offset="0.5227" style="stop-color:#67963E" id="stop29" />
      <stop offset="0.6066" style="stop-color:#62914A" id="stop31" />
      <stop offset="0.6803" style="stop-color:#5C8B59" id="stop33" />
      <stop offset="0.747" style="stop-color:#528368" id="stop35" />
      <stop offset="0.8084" style="stop-color:#467977" id="stop37" />
      <stop offset="0.8656" style="stop-color:#356D87" id="stop39" />
      <stop offset="0.9173" style="stop-color:#1C6095" id="stop41" />
      <stop offset="0.9607" style="stop-color:#0054A6" id="stop43" />
      <stop offset="0.9696" style="stop-color:#2E4BA0" id="stop45" />
      <stop offset="0.9893" style="stop-color:#5A3795" id="stop47" />
      <stop offset="1" style="stop-color:#662D91" id="stop49" />
    </linearGradient>
    <linearGradient gradientTransform="matrix(0.94760496,-0.01496359,0.01412178,0.97366428,317.23734,-10.872048)" y2="864.57129" x2="353.1377" y1="557.77557" x1="452.44589" gradientUnits="userSpaceOnUse" id="linearGradient10163" xlink:href="#XMLID_8_" ns2:collect="always" />
    <linearGradient gradientTransform="matrix(0.67207627,0,0,0.67207627,381.67751,37.544503)" gradientUnits="userSpaceOnUse" y2="161.78656" x2="131.33696" y1="155.8502" x1="123.69081" id="linearGradient5134" xlink:href="#linearGradient5128" ns2:collect="always" />
    <linearGradient id="linearGradient5128" ns2:collect="always">
      <stop id="stop5130" offset="0" style="stop-color:#95bff2;stop-opacity:1;" />
      <stop id="stop5132" offset="1" style="stop-color:#86b6f0;stop-opacity:0" />
    </linearGradient>
    <linearGradient gradientUnits="userSpaceOnUse" y2="160.95337" x2="129.2478" y1="154.08974" x1="122.03947" id="linearGradient5134-9" xlink:href="#linearGradient5128" ns2:collect="always" gradientTransform="matrix(0.3829586,0.5522945,-0.5522945,0.3829586,546.08161,-3.2713455)" />
    <linearGradient gradientTransform="matrix(0.67207627,0,0,0.67207627,403.8917,4.1963433)" y2="162.29231" x2="129.73541" y1="155.34445" x1="123.26936" gradientUnits="userSpaceOnUse" id="linearGradient5164" xlink:href="#linearGradient5128" ns2:collect="always" />
    <linearGradient y2="163.64098" x2="128.38675" y1="153.32146" x1="120.57202" gradientTransform="matrix(0.67207627,0,0,0.67207627,461.9017,24.36388)" gradientUnits="userSpaceOnUse" id="linearGradient5168" xlink:href="#linearGradient5128" ns2:collect="always" />
    <ns2:path-effect fuse_tolerance="0" vertical_pattern="true" prop_units="false" tang_offset="0" normal_offset="0" spacing="0" scale_y_rel="false" prop_scale="1" copytype="single_stretched" pattern="m 867.55667,515.13262 1.38896,40.4061 -2.77792,0 z" is_visible="true" id="path-effect3956-8-4" effect="skeletal" />
    <ns2:path-effect fuse_tolerance="0" vertical_pattern="true" prop_units="false" tang_offset="0" normal_offset="0" spacing="0" scale_y_rel="false" prop_scale="1" copytype="single_stretched" pattern="m 892.49044,501.34066 1.38896,40.4061 -2.77792,0 z" is_visible="true" id="path-effect3956-0-7-8" effect="skeletal" />
    <ns2:path-effect fuse_tolerance="0" vertical_pattern="true" prop_units="false" tang_offset="0" normal_offset="0" spacing="0" scale_y_rel="false" prop_scale="1" copytype="single_stretched" pattern="m 918.20473,489.55495 1.38896,40.4061 -2.77792,0 z" is_visible="true" id="path-effect3956-9-5-3" effect="skeletal" />
    <ns2:path-effect fuse_tolerance="0" vertical_pattern="true" prop_units="false" tang_offset="0" normal_offset="0" spacing="0" scale_y_rel="false" prop_scale="1" copytype="single_stretched" pattern="m 946.06187,484.1978 1.38896,40.4061 -2.77792,0 z" is_visible="true" id="path-effect3956-6-5-2" effect="skeletal" />
    <ns2:path-effect fuse_tolerance="0" vertical_pattern="true" prop_units="false" tang_offset="0" normal_offset="0" spacing="0" scale_y_rel="false" prop_scale="1" copytype="single_stretched" pattern="m 971.41901,476.69781 1.38896,40.4061 -2.77792,0 z" is_visible="true" id="path-effect3956-99-4-3" effect="skeletal" />
    <ns2:path-effect fuse_tolerance="0" vertical_pattern="true" prop_units="false" tang_offset="0" normal_offset="0" spacing="0" scale_y_rel="false" prop_scale="1" copytype="single_stretched" pattern="m 996.77616,468.48352 1.38896,40.4061 -2.77792,0 z" is_visible="true" id="path-effect3956-5-6-6" effect="skeletal" />
    <ns2:path-effect fuse_tolerance="0" vertical_pattern="true" prop_units="false" tang_offset="0" normal_offset="0" spacing="0" scale_y_rel="false" prop_scale="1" copytype="single_stretched" pattern="m 1020.9946,461.1538 1.389,40.4061 -2.7779,0 z" is_visible="true" id="path-effect3956-5-1-1-8" effect="skeletal" />
    <ns2:path-effect fuse_tolerance="0" vertical_pattern="true" prop_units="false" tang_offset="0" normal_offset="0" spacing="0" scale_y_rel="false" prop_scale="1" copytype="single_stretched" pattern="m 1011.9512,455.71387 1.3889,40.4061 -2.7779,0 z" is_visible="true" id="path-effect3956-5-1-8-8-6" effect="skeletal" />
    <ns2:path-effect fuse_tolerance="0" vertical_pattern="true" prop_units="false" tang_offset="0" normal_offset="0" spacing="0" scale_y_rel="false" prop_scale="1" copytype="single_stretched" pattern="m 982.75323,451.88036 1.38896,40.4061 -2.77792,0 z" is_visible="true" id="path-effect3956-99-0-6-9" effect="skeletal" />
    <ns2:path-effect fuse_tolerance="0" vertical_pattern="true" prop_units="false" tang_offset="0" normal_offset="0" spacing="0" scale_y_rel="false" prop_scale="1" copytype="single_stretched" pattern="m 877.4889,482.80023 1.38896,40.4061 -2.77792,0 z" is_visible="true" id="path-effect3956-99-0-8-9-5-5" effect="skeletal" />
    <ns2:path-effect fuse_tolerance="0" vertical_pattern="true" prop_units="false" tang_offset="0" normal_offset="0" spacing="0" scale_y_rel="false" prop_scale="1" copytype="single_stretched" pattern="m 902.4889,475.65737 1.38896,40.4061 -2.77792,0 z" is_visible="true" id="path-effect3956-99-0-8-2-6-1" effect="skeletal" />
    <ns2:path-effect fuse_tolerance="0" vertical_pattern="true" prop_units="false" tang_offset="0" normal_offset="0" spacing="0" scale_y_rel="false" prop_scale="1" copytype="single_stretched" pattern="m 930.34605,464.58594 1.38896,40.4061 -2.77792,0 z" is_visible="true" id="path-effect3956-99-0-8-8-8-4" effect="skeletal" />
    <ns2:path-effect fuse_tolerance="0" vertical_pattern="true" prop_units="false" tang_offset="0" normal_offset="0" spacing="0" scale_y_rel="false" prop_scale="1" copytype="single_stretched" pattern="m 956.41747,458.51451 1.38896,40.4061 -2.77792,0 z" is_visible="true" id="path-effect3956-99-0-8-4-8-3" effect="skeletal" />
    <ns2:path-effect fuse_tolerance="0" vertical_pattern="true" prop_units="false" tang_offset="0" normal_offset="0" spacing="0" scale_y_rel="false" prop_scale="1" copytype="single_stretched" pattern="m 840.72815,544.58595 1.38896,40.4061 -2.77792,0 z" is_visible="true" id="path-effect3956-99-0-8-7-54-5" effect="skeletal" />
    <ns2:path-effect fuse_tolerance="0" vertical_pattern="true" prop_units="false" tang_offset="0" normal_offset="0" spacing="0" scale_y_rel="false" prop_scale="1" copytype="single_stretched" pattern="m 810.88054,563.63437 1.38896,40.4061 -2.77792,0 z" is_visible="true" id="path-effect3956-99-0-8-7-5-6-6" effect="skeletal" />
    <ns2:path-effect fuse_tolerance="0" vertical_pattern="true" prop_units="false" tang_offset="0" normal_offset="0" spacing="0" scale_y_rel="false" prop_scale="1" copytype="single_stretched" pattern="m 855.3741,464.33771 1.38896,40.4061 -2.77792,0 z" is_visible="true" id="path-effect3956-99-0-8-7-1-85-6" effect="skeletal" />
    <ns2:path-effect fuse_tolerance="0" vertical_pattern="true" prop_units="false" tang_offset="0" normal_offset="0" spacing="0" scale_y_rel="false" prop_scale="1" copytype="single_stretched" pattern="m 791.45401,504.67833 1.38896,40.4061 -2.77792,0 z" is_visible="true" id="path-effect3956-99-0-8-7-1-8-0-7" effect="skeletal" />
    <ns2:path-effect fuse_tolerance="0" vertical_pattern="true" prop_units="false" tang_offset="0" normal_offset="0" spacing="0" scale_y_rel="false" prop_scale="1" copytype="single_stretched" pattern="m 839.28056,530.78447 1.38896,40.4061 -2.77792,0 z" is_visible="true" id="path-effect3956-99-0-8-7-1-8-4-8-2" effect="skeletal" />
    <radialGradient ns2:collect="always" xlink:href="#linearGradient4072-7" id="radialGradient29329" gradientUnits="userSpaceOnUse" gradientTransform="matrix(0.40556169,-0.33554526,0.13154845,0.15899795,551.5587,451.48843)" cx="124.12415" cy="103.94829" fx="124.12415" fy="103.94829" r="45.931713" />
    <linearGradient id="linearGradient4072-7" ns2:collect="always">
      <stop id="stop4074-6" offset="0" style="stop-color:#d6a186;stop-opacity:1;" />
      <stop id="stop4076-5" offset="1" style="stop-color:#d6a186;stop-opacity:0;" />
    </linearGradient>
    <ns2:path-effect fuse_tolerance="0" vertical_pattern="false" prop_units="false" tang_offset="0" normal_offset="0" spacing="2" scale_y_rel="false" prop_scale="1" copytype="repeated_stretched" pattern="#rect4451" is_visible="true" id="path-effect3182-0-0" effect="skeletal" />
  </defs>
  <metadata id="metadata29162">
    <rdf:RDF>
      <ns5:Work rdf:about="">
        <dc:format>image/svg+xml</dc:format>
        <dc:type rdf:resource="http://purl.org/dc/dcmitype/StillImage" />
        <dc:title />
      </ns5:Work>
    </rdf:RDF>
  </metadata>
  <g style="display:inline" transform="translate(-129.5,-11.862187)" id="layer1" ns2:groupmode="layer" ns2:label="Draw">
    <g transform="translate(-391.9025,23.798341)" id="g9404" style="display:inline">
      </g>
    <g transform="translate(-249.15432,-48.972269)" id="g10309" style="display:inline;overflow:visible">
      </g>
    <g transform="matrix(0.99999988,-5.1317708e-4,5.1317708e-4,0.99999988,-340.42751,4.1786011)" id="g10089" style="display:inline">
      </g>
    </g>
  <g transform="translate(-129.5,-11.862187)" style="display:inline" ns2:label="Salivary glands" id="layer4" ns2:groupmode="layer">
    <g transform="translate(-115.66453,-65.867069)" id="g11213" style="display:inline;overflow:visible">
      <path d="m 382.91905,248.27749 c -1.26934,2.73575 -2.87055,3.68126 -2.3583,6.99059 0.75725,4.89391 7.16733,5.22111 9.96935,5.59622 3.82565,0.51183 9.76629,1.01663 12.2385,-4.00113 2.70006,-5.48169 1.43141,-11.48454 -3.52584,-12.18685 -4.05266,-0.57375 -7.17076,0.82981 -11.19551,0.78909 -1.64589,-0.0166 -3.28318,0.2323 -5.1282,2.81208 z" id="path137" style="color:#000000;clip-rule:nonzero;display:inline;overflow:visible;visibility:visible;opacity:0.50700001;isolation:auto;mix-blend-mode:normal;color-interpolation:sRGB;color-interpolation-filters:linearRGB;solid-color:#000000;solid-opacity:1;fill:#ffc20e;fill-opacity:1;fill-rule:nonzero;stroke:#000000;stroke-width:0.30015075;stroke-linecap:butt;stroke-linejoin:miter;stroke-miterlimit:4;stroke-dasharray:none;stroke-dashoffset:0;stroke-opacity:1;color-rendering:auto;image-rendering:auto;shape-rendering:auto;text-rendering:auto;enable-background:accumulate" ns2:connector-curvature="0" ns1:nodetypes="cccccsc" />
      <path ns1:nodetypes="cccccccccccccccccc" d="m 386.46971,254.78898 c -0.23556,-0.3342 -0.29982,-0.96756 -0.12422,-2.02042 -0.44714,-0.0818 -2.40022,-0.0502 -2.64523,0.48844 0.46174,-1.0178 -1.30591,-2.48823 -1.15774,-3.62408 0.0764,-0.58544 -1.48386,2.22337 -1.72371,2.90465 -0.26984,0.76772 -0.12329,3.08612 0.11401,3.98474 0.58592,2.2144 2.84456,2.48982 4.3385,3.02385 3.46418,1.24101 9.55683,2.26769 13.0304,0.78363 2.84814,-0.54258 4.72234,-2.31749 5.1511,-6.47994 0.63218,-3.20652 -0.0313,-9.10885 -3.17686,-8.19038 1.02023,1.06923 0.89935,2.82634 -0.26393,4.22043 1.56504,0.58894 1.27551,5.1907 -0.60991,3.61082 -0.67674,1.34968 -0.58507,0.81215 -1.28407,1.42914 -0.0943,0.37745 -0.38291,1.24335 -0.55938,1.57054 -2.15268,1.00379 -5.13887,-2.04029 -6.88551,-1.07858 0.23215,-0.12853 0.75126,-0.77825 1.23182,-0.94887 1.12218,1.18843 1.91026,-0.72449 1.99765,-2.03795 -1.50681,-1.02248 -6.33387,3.92166 -7.43289,2.36398 z" id="path217" style="color:#000000;clip-rule:nonzero;display:inline;overflow:visible;visibility:visible;opacity:0.5;isolation:auto;mix-blend-mode:normal;color-interpolation:sRGB;color-interpolation-filters:linearRGB;solid-color:#000000;solid-opacity:1;fill:#faa41a;fill-opacity:1;fill-rule:nonzero;stroke-width:1;stroke-linecap:butt;stroke-linejoin:miter;stroke-miterlimit:4;stroke-dasharray:none;stroke-dashoffset:0;stroke-opacity:1;color-rendering:auto;image-rendering:auto;shape-rendering:auto;text-rendering:auto;enable-background:accumulate" ns2:connector-curvature="0" />
      <path ns1:nodetypes="csccscc" ns2:connector-curvature="0" style="color:#000000;clip-rule:nonzero;display:inline;overflow:visible;visibility:visible;opacity:0.50700001;isolation:auto;mix-blend-mode:normal;color-interpolation:sRGB;color-interpolation-filters:linearRGB;solid-color:#000000;solid-opacity:1;fill:#ffc20e;fill-opacity:1;fill-rule:nonzero;stroke:#000000;stroke-width:0.24911505;stroke-linecap:butt;stroke-linejoin:miter;stroke-miterlimit:4;stroke-dasharray:none;stroke-dashoffset:0;stroke-opacity:1;color-rendering:auto;image-rendering:auto;shape-rendering:auto;text-rendering:auto;enable-background:accumulate" id="path11042" d="m 381.19259,250.49164 c -5.9194,-2.52639 -8.52159,-5.63677 -14.09606,-9.75552 -2.51816,-1.86059 -6.1249,-5.81365 -6.09324,-6.11535 -0.28,0.12627 -0.56932,0.32824 -1.0816,0.33461 1.37558,1.68296 2.22748,3.18811 4.43973,4.88138 l 10.14153,7.76241 c 1.37659,1.17207 4.94501,3.29737 6.18399,3.94754" />
    </g>
    <g transform="matrix(0.99970303,0,0,1.1233936,-97.61397,-124.88704)" id="g11205" style="display:inline;overflow:visible">
      <path ns2:connector-curvature="0" style="opacity:0.50700001;fill:#ffc20e;stroke:#000000;stroke-width:0.30000001;stroke-miterlimit:4;stroke-dasharray:none" id="path213" d="m 382.77162,235.18555 c -6.36636,-0.14271 -13.89989,1.37653 -19.35755,1.97969 -3.66361,0.40489 -7.08881,1.07358 -12.06921,2.43377 0.628,0.321 2.17358,-0.58304 2.20585,2.13689 4.25733,-1.23829 3.81362,-1.66028 12.88667,-2.99193 4.03595,-0.59235 12.81807,-2.18597 16.57507,-1.53481" ns1:nodetypes="csccsc" />
      <path ns2:connector-curvature="0" style="opacity:0.5;fill:#faa41a" id="path215" d="m 393.27138,248.10997 c -0.688,0.33 -1.711,0.754 -2.57,0.889 0.156,0.134 0.591,0.546 0.801,0.766 -2.279,0.014 -3.218,2.558 -0.929,3.336 0.015,0.341 -0.327,0.506 -0.151,0.861 1.279,0.625 2.496,0.224 3.502,-0.814 -0.015,0.117 0.303,0.972 0.339,1.132 -1.489,0.367 -1.576,0.348 -0.901,1.784 -1.766,0.657 -3.137,2.643 -1.783,4.242 0.338,-0.387 1.207,-0.796 1.637,-1.34 -0.076,0.646 0.154,0.944 0.174,1.267 2.29,-1.775 3.23,-4.458 4.468,-6.831 -0.288,-0.278 -0.556,-0.117 -0.784,-0.263 0.836,-0.614 0.613,-1.06 1.098,-1.837 -0.646,-0.34 -0.961,-0.525 -1.689,-0.622 -0.02,-0.032 0.453,-0.568 0.418,-0.806 -0.348,-0.153 -0.738,0.056 -1.017,-0.262 0.472,-1.205 1.383,-2.081 2.513,-2.744 0.072,-0.053 -0.81,0.016 -0.789,0.021 0.801,-0.243 1.443,-0.752 2.063,-1.91 1.172,1.297 2.395,1.323 2.394,-0.751 1.607,0.192 0.506,0.155 1.889,-0.911 1.371,-0.111 1.701,-0.648 1.148,-2.165 -0.307,-0.098 -0.533,0.182 -0.653,0.159 0.002,0.002 0.401,-0.618 0.308,-0.813 -0.436,-0.127 -0.896,-0.144 -1.362,-0.254 4.206,0.991 2.534,-5.916 2.06,-7.173 -0.557,-1.478 -0.64789,-1.38154 -2.19989,-2.53154 -1.328,-0.983 -3.66626,-4.71935 -5.18226,-4.86035 4.88818,0.60766 10.31522,6.87053 10.56957,11.33666 0.58295,5.74038 -0.74754,9.63097 -2.75422,13.15766 -0.157,-0.29 -0.8262,-1.35843 -1.0092,-1.66543 -0.308,-0.175 -0.482,0.394 -0.633,0.309 -0.113,-0.097 -0.268,-0.617 -0.395,-0.783 -0.878,0.691 -1.09,0.48 -1.273,1.5 -1.208,0.587 -0.909,0.733 -1.305,1.74 0.887,-0.107 1.952,0.276 2.837,0.031 -0.839,0.534 1.07984,1.37623 0.63384,1.91723 -0.13319,3.41843 -7.15679,8.71605 -8.83679,10.02805 -2.793,2.22291 -12.36805,10.82862 -12.65805,0.70072 0.183,0.359 0.879,0.966 1.188,1.359 -0.416,-0.529 3.262,-0.847 3.415,-0.847 -0.097,-1.633 -1.434,-3.855 -3.353,-2.907 0.241,-2.049 1.88359,-3.06162 -1.15641,-4.23662 0.0375,-1.44312 0.37088,-6.07713 0.30944,-8.50248 -0.33571,-5.3207 -1.14672,-13.78499 -0.78426,-15.17021 1.989,2.421 1.00423,3.16731 2.99823,1.83831 -0.188,-0.034 -0.646,0.001 -0.788,-0.081 0.786,0.037 1.814,0.467 2.575,0.682 -0.849,0.893 -1.171,2.425 -0.246,3.741 -0.195,-0.25 -0.639,-0.63 -0.786,-0.806 -0.974,1.638 -0.333,3.463 1.395,4.263 0.008,-0.013 0.55,-0.522 0.607,-0.569 -2.251,1.809 2.127,2.758 3.146,2.458 0.165,1.146 0.684,2.132 1.502,2.937 z" ns1:nodetypes="ccccccccccccccccccccccccccccccccccccccccccccccccccccccc" />
      <path ns1:nodetypes="cccccccccc" d="m 383.29838,255.12953 c -0.295,3.39 -2.319,11.651 2.256,13.259 3.273,1.15 7.734,-2.624 10.002,-4.555 2.973,-2.533 6.379,-4.806 8.369,-8.264 1.754,-3.049 2.42,-6.211 3.792,-9.357 2.251,-5.161 2.02256,-12.9792 -4.09644,-17.8332 -3.85,-3.056 -6.01556,-4.0178 -11.03156,-3.3498 -3.002,0.399 -6.291,1.496 -8.697,3.381 -0.79689,0.62491 -1.19105,4.66333 -1.12076,6.14929 0.30497,6.98031 1.01993,14.29597 0.52676,20.56971 z" id="path11056" style="opacity:0.50700001;fill:#ffc20e;stroke:#000000;stroke-width:0.30000001;stroke-miterlimit:4;stroke-dasharray:none" ns2:connector-curvature="0" />
    </g>
    <g transform="translate(-126.51058,-85.056219)" id="g11226" style="display:inline;overflow:visible">
      <path d="m 369.17629,256.38271 c 0.17785,-0.32592 3.18464,-1.67903 3.98964,-1.63315 3.4082,-0.0436 6.2232,1.74362 9.53405,2.35276 2.89448,0.51049 9.9841,-0.24963 12.81861,1.3217 3.5529,1.96958 -0.48663,6.09413 -1.07882,6.82791 -1.83474,2.27342 -25.43655,2.75492 -26.38372,1.88281 -1.04507,-0.47772 -1.18503,-8.74317 1.12024,-10.75203 z" id="path154" style="color:#000000;clip-rule:nonzero;display:inline;overflow:visible;visibility:visible;opacity:0.50700001;isolation:auto;mix-blend-mode:normal;color-interpolation:sRGB;color-interpolation-filters:linearRGB;solid-color:#000000;solid-opacity:1;fill:#ffc20e;fill-opacity:1;fill-rule:nonzero;stroke:#000000;stroke-width:0.27313945;stroke-linecap:butt;stroke-linejoin:miter;stroke-miterlimit:4;stroke-dasharray:none;stroke-dashoffset:0;stroke-opacity:1;color-rendering:auto;image-rendering:auto;shape-rendering:auto;text-rendering:auto;enable-background:accumulate" ns2:connector-curvature="0" ns1:nodetypes="cccsscc" />
      <path d="m 369.81879,265.74484 c 0.60317,0.35049 3.71409,0.78808 4.98372,0.61695 0.37469,-0.0505 2.125,-3.03493 1.21434,-0.0729 1.42039,-0.0829 3.12212,0.18009 4.8688,0.12718 -0.5156,-0.63434 -0.56597,-2.16266 -0.31478,-1.67125 0.42207,0.82569 1.1978,1.17763 1.68949,1.58612 1.13375,0.75189 3.54611,-0.71557 3.92283,-1.67089 0.18335,-0.0154 -0.60639,1.38854 -0.42377,1.37337 4.8343,-0.69886 9.36106,-1.77173 11.1059,-4.28995 0.40044,-0.57793 -1.92108,3.26712 -2.42793,3.6141 -1.61036,1.81042 -24.30092,3.37902 -26.42131,2.00245 -0.52568,-0.99161 -0.95913,-1.41571 -1.06258,-1.793 -0.17903,-0.66355 0.53911,-6.21958 0.90593,-6.33594 -0.37823,5.04636 0.84877,5.61784 1.95936,6.5138 z" id="path219" style="color:#000000;clip-rule:nonzero;display:inline;overflow:visible;visibility:visible;opacity:0.5;isolation:auto;mix-blend-mode:normal;color-interpolation:sRGB;color-interpolation-filters:linearRGB;solid-color:#000000;solid-opacity:1;fill:#faa41a;fill-opacity:1;fill-rule:nonzero;stroke-width:1;stroke-linecap:butt;stroke-linejoin:miter;stroke-miterlimit:4;stroke-dasharray:none;stroke-dashoffset:0;stroke-opacity:1;color-rendering:auto;image-rendering:auto;shape-rendering:auto;text-rendering:auto;enable-background:accumulate" ns2:connector-curvature="0" ns1:nodetypes="ccccscccscccccc" />
      <path style="color:#000000;clip-rule:nonzero;display:inline;overflow:visible;visibility:visible;opacity:0.50700001;isolation:auto;mix-blend-mode:normal;color-interpolation:sRGB;color-interpolation-filters:linearRGB;solid-color:#000000;solid-opacity:1;fill:#ffc20e;fill-opacity:1;fill-rule:nonzero;stroke:#000000;stroke-width:0.27313945;stroke-linecap:butt;stroke-linejoin:miter;stroke-miterlimit:4;stroke-dasharray:none;stroke-dashoffset:0;stroke-opacity:1;color-rendering:auto;image-rendering:auto;shape-rendering:auto;text-rendering:auto;enable-background:accumulate" d="m 373.57415,254.6994 1.53751,-4.49327 0.81818,0.18624 -1.58455,4.42058" id="rect11121" ns2:connector-curvature="0" ns1:nodetypes="cccc" />
      <path ns1:nodetypes="cccc" ns2:connector-curvature="0" id="use11138" d="m 377.00713,255.50772 1.39421,-4.29117 0.81818,0.18624 -1.38066,4.22739" style="color:#000000;clip-rule:nonzero;display:inline;overflow:visible;visibility:visible;opacity:0.50700001;isolation:auto;mix-blend-mode:normal;color-interpolation:sRGB;color-interpolation-filters:linearRGB;solid-color:#000000;solid-opacity:1;fill:#ffc20e;fill-opacity:1;fill-rule:nonzero;stroke:#000000;stroke-width:0.27313945;stroke-linecap:butt;stroke-linejoin:miter;stroke-miterlimit:4;stroke-dasharray:none;stroke-dashoffset:0;stroke-opacity:1;color-rendering:auto;image-rendering:auto;shape-rendering:auto;text-rendering:auto;enable-background:accumulate" />
      <path ns1:nodetypes="cccc" ns2:connector-curvature="0" id="use11140" d="m 381.32377,256.74374 0.79569,-4.45368 0.81818,0.18624 -0.84273,4.38099" style="color:#000000;clip-rule:nonzero;display:inline;overflow:visible;visibility:visible;opacity:0.50700001;isolation:auto;mix-blend-mode:normal;color-interpolation:sRGB;color-interpolation-filters:linearRGB;solid-color:#000000;solid-opacity:1;fill:#ffc20e;fill-opacity:1;fill-rule:nonzero;stroke:#000000;stroke-width:0.27313945;stroke-linecap:butt;stroke-linejoin:miter;stroke-miterlimit:4;stroke-dasharray:none;stroke-dashoffset:0;stroke-opacity:1;color-rendering:auto;image-rendering:auto;shape-rendering:auto;text-rendering:auto;enable-background:accumulate" />
      <path ns1:nodetypes="cccc" ns2:connector-curvature="0" id="use11142" d="m 385.00835,257.24263 0.35676,-4.3695 0.81818,0.18624 -0.40382,4.29681" style="color:#000000;clip-rule:nonzero;display:inline;overflow:visible;visibility:visible;opacity:0.50700001;isolation:auto;mix-blend-mode:normal;color-interpolation:sRGB;color-interpolation-filters:linearRGB;solid-color:#000000;solid-opacity:1;fill:#ffc20e;fill-opacity:1;fill-rule:nonzero;stroke:#000000;stroke-width:0.27313945;stroke-linecap:butt;stroke-linejoin:miter;stroke-miterlimit:4;stroke-dasharray:none;stroke-dashoffset:0;stroke-opacity:1;color-rendering:auto;image-rendering:auto;shape-rendering:auto;text-rendering:auto;enable-background:accumulate" />
      <path ns1:nodetypes="cccc" ns2:connector-curvature="0" id="use11144" d="m 388.72426,257.22006 0.28147,-4.23179 0.81818,0.18624 -0.19259,4.03031" style="color:#000000;clip-rule:nonzero;display:inline;overflow:visible;visibility:visible;opacity:0.50700001;isolation:auto;mix-blend-mode:normal;color-interpolation:sRGB;color-interpolation-filters:linearRGB;solid-color:#000000;solid-opacity:1;fill:#ffc20e;fill-opacity:1;fill-rule:nonzero;stroke:#000000;stroke-width:0.27313945;stroke-linecap:butt;stroke-linejoin:miter;stroke-miterlimit:4;stroke-dasharray:none;stroke-dashoffset:0;stroke-opacity:1;color-rendering:auto;image-rendering:auto;shape-rendering:auto;text-rendering:auto;enable-background:accumulate" />
      <path ns1:nodetypes="cccc" ns2:connector-curvature="0" id="path11164" d="m 392.5315,257.56488 0.10707,-4.33187 0.81818,0.18624 0.0203,4.35925" style="color:#000000;clip-rule:nonzero;display:inline;overflow:visible;visibility:visible;opacity:0.50700001;isolation:auto;mix-blend-mode:normal;color-interpolation:sRGB;color-interpolation-filters:linearRGB;solid-color:#000000;solid-opacity:1;fill:#ffc20e;fill-opacity:1;fill-rule:nonzero;stroke:#000000;stroke-width:0.27313945;stroke-linecap:butt;stroke-linejoin:miter;stroke-miterlimit:4;stroke-dasharray:none;stroke-dashoffset:0;stroke-opacity:1;color-rendering:auto;image-rendering:auto;shape-rendering:auto;text-rendering:auto;enable-background:accumulate" />
    </g>
  </g>
  <g transform="translate(-129.5,-11.862187)" style="display:none" ns2:label="Patterns" id="layer5" ns2:groupmode="layer">
    </g>
</svg>